<svg width="140" height="140" viewBox="0 0 140 140" fill="none" xmlns="http://www.w3.org/2000/svg">
<circle cx="70" cy="70" r="70" fill="#3F4EAE"/>
<path d="M97.295 59.9575H95.6V51.78C95.5986 51.728 95.5936 51.6763 95.585 51.625C95.5873 51.2965 95.47 50.9784 95.255 50.73L81.65 35.1875L81.64 35.1775C81.5585 35.0895 81.466 35.0122 81.365 34.9475L81.275 34.8925C81.1886 34.8444 81.0972 34.8059 81.0025 34.7775L80.9275 34.7525C80.8236 34.7266 80.717 34.7132 80.61 34.7125H47.1675C45.64 34.7125 44.4 35.955 44.4 37.48V59.955H42.705C40.52 59.955 38.75 61.725 38.75 63.91V84.48C38.75 86.6625 40.5225 88.435 42.705 88.435H44.4V102.515C44.4 104.04 45.64 105.283 47.1675 105.283H92.8325C94.3575 105.283 95.6 104.04 95.6 102.515V88.435H97.295C99.4775 88.435 101.25 86.665 101.25 84.48V63.91C101.25 61.7275 99.48 59.9575 97.295 59.9575ZM47.1675 37.48H79.225V51.64C79.225 52.405 79.845 53.0225 80.61 53.0225H92.835V59.955H47.1675V37.48V37.48ZM67.8725 75.4C64.5125 74.2 62.295 72.34 62.295 69.4025C62.295 65.955 65.205 63.3475 69.9425 63.3475C72.2525 63.3475 73.9 63.7975 75.1 64.365L74.08 68.0225C72.7727 67.3858 71.3366 67.0582 69.8825 67.065C67.9025 67.065 66.9425 67.9925 66.9425 69.0125C66.9425 70.3025 68.05 70.87 70.69 71.86C74.26 73.18 75.9075 75.0375 75.9075 77.8875C75.9075 81.2775 73.33 84.155 67.7825 84.155C65.4725 84.155 63.195 83.525 62.055 82.895L62.985 79.1475C64.5549 79.9491 66.2876 80.3801 68.05 80.4075C70.15 80.4075 71.26 79.535 71.26 78.2175C71.26 76.9575 70.3025 76.24 67.8725 75.4V75.4ZM44.0575 74.02C44.0575 67.1525 48.975 63.345 55.09 63.345C57.46 63.345 59.2575 63.8225 60.0675 64.215L59.1075 67.8425C57.8931 67.3326 56.587 67.0773 55.27 67.0925C51.6725 67.0925 48.855 69.28 48.855 73.7775C48.855 77.795 51.2525 80.345 55.3 80.345C56.71 80.345 58.21 80.0775 59.1375 79.685L59.8 83.2825C58.99 83.67 57.07 84.1525 54.6425 84.1525C47.655 84.155 44.0575 79.7775 44.0575 74.02V74.02ZM92.8325 101.77H47.1675V88.4375H92.8325V101.77V101.77ZM89.1375 83.855H83.8L77.325 63.645H82.3325L84.79 72.1925C85.4775 74.62 86.1075 76.9 86.5875 79.4175H86.6775C87.1887 77.0151 87.7984 74.6348 88.505 72.2825L91.085 63.6475H95.94L89.1375 83.855V83.855Z" fill="white"/>
</svg>
